<svg width="172" height="36" viewBox="0 0 172 36" fill="none" xmlns="http://www.w3.org/2000/svg">
<g clip-path="url(#clip0_6338_5371)">
<path fill-rule="evenodd" clip-rule="evenodd" d="M28.2923 20.5031C27.9194 22.0584 27.1977 23.5084 26.1818 24.7436C25.1658 25.9788 23.8823 26.9668 22.4282 27.6328L20.7407 25.7203L17.8579 28.6031C16.2261 28.5836 14.6209 28.1876 13.1672 27.4461C11.7135 26.7047 10.4505 25.6376 9.47668 24.3281C9.78606 24.4125 10.0954 24.4688 10.4189 24.4969C10.8829 24.4969 11.4032 24.3422 11.4032 23.5406V15.75C11.4104 15.5494 11.3702 15.3499 11.286 15.1676C11.2018 14.9854 11.0759 14.8255 10.9185 14.701C10.761 14.5764 10.5765 14.4906 10.3798 14.4505C10.1831 14.4105 9.97967 14.4172 9.78606 14.4703C8.45012 14.7797 7.39543 18.0984 7.39543 18.0984C7.36198 15.5407 8.25922 13.058 9.92009 11.1125C11.5809 9.1671 13.8922 7.89157 16.4236 7.52344C14.9751 8.36719 14.1736 9.70312 14.1736 10.8281C14.1736 12.6562 15.2564 12.4313 15.5798 12.1641V22.6828C15.7304 23.0462 16.0043 23.345 16.3532 23.5266C16.571 23.6376 16.812 23.6954 17.0564 23.6953C18.1673 23.6953 19.5876 22.4297 19.5876 22.4297V13.9219C19.5602 13.467 19.4278 13.0246 19.201 12.6294C18.9741 12.2342 18.6588 11.8968 18.2798 11.6438C18.2798 11.6438 19.4892 11.4328 20.4314 12.15C22.0797 10.181 24.3897 8.88096 26.9282 8.49375C26.9282 8.49375 23.8204 10.9266 23.8204 14.2031C23.8204 16.6359 23.8767 22.5844 23.8767 22.5844C25.0298 23.6953 26.7454 22.0781 28.2923 20.5031Z" fill="white"/>
<path fill-rule="evenodd" clip-rule="evenodd" d="M18.0008 0.675781C13.4059 0.675781 8.99923 2.50109 5.75016 5.75016C2.50109 8.99923 0.675781 13.4059 0.675781 18.0008C0.675781 22.5957 2.50109 27.0023 5.75016 30.2514C8.99923 33.5005 13.4059 35.3258 18.0008 35.3258C22.5957 35.3258 27.0023 33.5005 30.2514 30.2514C33.5005 27.0023 35.3258 22.5957 35.3258 18.0008C35.3258 13.4059 33.5005 8.99923 30.2514 5.75016C27.0023 2.50109 22.5957 0.675781 18.0008 0.675781ZM18.0008 34.6367C13.5887 34.6367 9.35724 32.884 6.2374 29.7642C3.11755 26.6443 1.36484 22.4129 1.36484 18.0008C1.36484 13.5887 3.11755 9.35724 6.2374 6.2374C9.35724 3.11755 13.5887 1.36484 18.0008 1.36484C22.4129 1.36484 26.6443 3.11755 29.7642 6.2374C32.884 9.35724 34.6367 13.5887 34.6367 18.0008C34.6367 22.4129 32.884 26.6443 29.7642 29.7642C26.6443 32.884 22.4129 34.6367 18.0008 34.6367Z" fill="white"/>
</g>
<path fill-rule="evenodd" clip-rule="evenodd" d="M122.471 21.8956H113.887V14.0195H122.335V15.7608H116.186V17.1013H122.009V18.7457H116.186V20.1025H122.47V21.8956H122.471Z" fill="white"/>
<path fill-rule="evenodd" clip-rule="evenodd" d="M171.855 21.8969H163.406V14.1445H171.723V15.858H165.67V17.1774H171.402V18.7969H165.67V20.1326H171.855V21.8969Z" fill="white"/>
<path fill-rule="evenodd" clip-rule="evenodd" d="M134.11 21.8956H130.637L126.065 16.0044H126.02V21.8956H123.742V14.0195H127.271L131.787 19.9165H131.832V14.0195H134.109V21.8956H134.11Z" fill="white"/>
<path fill-rule="evenodd" clip-rule="evenodd" d="M161.634 21.8956H158.161L153.589 16.0044H153.544V21.8956H151.266V14.0195H154.794L159.31 19.9165H159.355V14.0195H161.632V21.8956H161.634Z" fill="white"/>
<path fill-rule="evenodd" clip-rule="evenodd" d="M140.823 21.9998C140.094 21.9998 139.465 21.9816 138.936 21.9461C138.407 21.9107 137.957 21.8426 137.587 21.7409C137.216 21.6403 136.916 21.4993 136.685 21.32C136.454 21.1407 136.274 20.9067 136.145 20.6191C136.018 20.3314 135.932 19.9824 135.888 19.5729C135.843 19.1635 135.82 18.6783 135.82 18.1174V17.8873C135.82 17.3225 135.843 16.8335 135.891 16.4202C135.937 16.007 136.025 15.656 136.154 15.3683C136.284 15.0807 136.464 14.8477 136.695 14.6694C136.926 14.492 137.227 14.3539 137.597 14.2542C137.967 14.1554 138.417 14.0883 138.947 14.0547C139.476 14.0212 140.101 14.0039 140.823 14.0039H141.173C141.78 14.0039 142.311 14.0173 142.765 14.0432C143.221 14.0691 143.612 14.1171 143.94 14.1861C144.267 14.2551 144.537 14.3501 144.75 14.4699C144.963 14.5898 145.132 14.7422 145.256 14.9273C145.38 15.1123 145.466 15.3338 145.514 15.5917C145.561 15.8497 145.586 16.1508 145.586 16.4951V16.798H143.354V16.7021C143.354 16.5228 143.326 16.3723 143.271 16.2505C143.215 16.1288 143.106 16.0319 142.944 15.959C142.781 15.8861 142.553 15.8344 142.26 15.8046C141.966 15.7749 141.578 15.7595 141.098 15.7595H140.904C140.468 15.7595 140.096 15.7673 139.787 15.7816C139.478 15.797 139.222 15.8296 139.016 15.8795C138.811 15.9303 138.648 16.0022 138.528 16.0951C138.409 16.1892 138.318 16.3157 138.26 16.4768C138.201 16.6379 138.163 16.8373 138.146 17.0742C138.13 17.312 138.121 17.5967 138.121 17.9295V18.0695C138.121 18.3945 138.13 18.6735 138.146 18.9056C138.162 19.1376 138.201 19.3333 138.26 19.4914C138.32 19.6506 138.409 19.7772 138.528 19.8702C138.648 19.9632 138.811 20.0351 139.016 20.086C139.222 20.1368 139.478 20.1693 139.787 20.1837C140.096 20.1991 140.468 20.2058 140.904 20.2058H141.098C141.453 20.2058 141.758 20.1991 142.016 20.1857C142.273 20.1723 142.488 20.1521 142.665 20.1243C142.84 20.0965 142.981 20.0572 143.087 20.0063C143.192 19.9555 143.273 19.8923 143.33 19.8156C143.388 19.7389 143.425 19.6487 143.444 19.5461C143.463 19.4435 143.472 19.3227 143.472 19.1837V18.965H140.458V17.451H145.677V19.2009C145.677 19.5787 145.652 19.9105 145.602 20.1962C145.552 20.482 145.462 20.7293 145.335 20.9364C145.208 21.1445 145.036 21.3162 144.819 21.4523C144.603 21.5894 144.329 21.6978 143.995 21.7783C143.662 21.8589 143.263 21.9155 142.799 21.949C142.335 21.9826 141.793 21.9998 141.176 21.9998H140.823Z" fill="white"/>
<path fill-rule="evenodd" clip-rule="evenodd" d="M149.587 21.9104H147.277V14.0957H149.587V21.9104Z" fill="white"/>
<path fill-rule="evenodd" clip-rule="evenodd" d="M49.2155 21.9941C48.576 21.9941 48.015 21.9769 47.5327 21.9433C47.0504 21.9097 46.6343 21.8503 46.2843 21.7678C45.9343 21.6844 45.6447 21.5722 45.4146 21.4303C45.1845 21.2884 45.0014 21.111 44.8652 20.8972C44.729 20.6833 44.6321 20.4293 44.5765 20.1349C44.52 19.8396 44.4922 19.4962 44.4922 19.1032V14.0059H46.8145V18.3485C46.8145 18.617 46.8241 18.8471 46.8424 19.0399C46.8605 19.2326 46.899 19.3966 46.9574 19.5327C47.015 19.6689 47.0983 19.7782 47.2067 19.8616C47.3151 19.945 47.4589 20.0102 47.6391 20.0572C47.8185 20.1042 48.039 20.1359 48.3008 20.1512C48.5626 20.1665 48.8751 20.1742 49.2376 20.1742H49.4341C49.7966 20.1742 50.1092 20.1656 50.3709 20.1483C50.6327 20.1311 50.8532 20.1004 51.0326 20.0544C51.2119 20.0093 51.3557 19.944 51.464 19.8587C51.5724 19.7734 51.6558 19.664 51.7133 19.5299C51.7709 19.3956 51.8092 19.2316 51.8284 19.037C51.8466 18.8423 51.8562 18.6132 51.8562 18.3485V14.0059H54.1785V19.1022C54.1785 19.4915 54.1527 19.8348 54.1 20.1311C54.0472 20.4283 53.9542 20.6833 53.82 20.8962C53.6857 21.11 53.5035 21.2874 53.2753 21.4293C53.0471 21.5712 52.7585 21.6834 52.4085 21.7669C52.0585 21.8503 51.6404 21.9088 51.1553 21.9423C50.6691 21.9769 50.1025 21.9931 49.4552 21.9931H49.2155V21.9941Z" fill="white"/>
<path fill-rule="evenodd" clip-rule="evenodd" d="M66.1202 21.8971H62.6481L58.0763 15.9897H58.0312V21.8971H55.7539V14H59.2825L63.7987 19.9132H63.8438V14H66.1211V21.8971H66.1202Z" fill="white"/>
<path fill-rule="evenodd" clip-rule="evenodd" d="M72.9676 17.9859C73.3674 17.9859 73.6868 17.9735 73.9245 17.9495C74.1623 17.9246 74.3426 17.8738 74.4653 17.7961C74.589 17.7185 74.6695 17.6111 74.7069 17.473C74.7444 17.3349 74.7635 17.1527 74.7635 16.9255V16.7893C74.7635 16.5659 74.7444 16.3856 74.7069 16.2476C74.6695 16.1095 74.588 16.004 74.4624 15.9302C74.3368 15.8563 74.1556 15.8075 73.9188 15.7825C73.681 15.7576 73.3645 15.7461 72.9676 15.7461H70.0728V17.9859H72.9676ZM77.1022 21.8971H74.8076V21.2566C74.8076 21.0265 74.798 20.828 74.7798 20.6612C74.7607 20.4953 74.7223 20.3544 74.6619 20.2393C74.6025 20.1242 74.518 20.0312 74.4097 19.9612C74.3014 19.8913 74.1585 19.8375 73.9801 19.7992C73.8028 19.7618 73.5841 19.7359 73.3243 19.7225C73.0644 19.709 72.7547 19.7023 72.3961 19.7023H70.0737V21.8962H67.7734V14H73.8996C74.5429 14 75.0722 14.0393 75.4875 14.1189C75.9026 14.1985 76.2296 14.3318 76.4693 14.5187C76.709 14.7057 76.874 14.9531 76.966 15.2619C77.0581 15.5696 77.1031 15.9503 77.1031 16.4038V16.682C77.1031 16.9917 77.0792 17.263 77.0302 17.4951C76.9814 17.7271 76.9027 17.9275 76.7944 18.0963C76.686 18.2641 76.546 18.4031 76.3734 18.5134C76.2018 18.6226 75.9899 18.7061 75.7396 18.7627V18.8077C76.0158 18.8528 76.243 18.9112 76.4214 18.9803C76.5988 19.0503 76.7378 19.1539 76.8395 19.2919C76.9401 19.43 77.0091 19.6103 77.0466 19.8337C77.084 20.0571 77.1022 20.3419 77.1022 20.69V21.8971Z" fill="white"/>
<path fill-rule="evenodd" clip-rule="evenodd" d="M87.1922 21.8971H78.6094V14H87.0579V15.7461H80.9097V17.0895H86.7328V18.7386H80.9097V20.0993H87.1922V21.8971Z" fill="white"/>
<path fill-rule="evenodd" clip-rule="evenodd" d="M94.951 18.8356L93.3412 15.6666H93.2848L91.6861 18.8356H94.951ZM99.019 21.903H96.5113L95.7875 20.4859H90.8614L90.1494 21.903H87.6641L91.9047 14.0059H94.7547L99.019 21.903Z" fill="white"/>
<path fill-rule="evenodd" clip-rule="evenodd" d="M107.475 21.904H99.8672V14.0059H102.19V20.0668H107.474V21.904H107.475Z" fill="white"/>
<defs>
<clipPath id="clip0_6338_5371">
<rect width="36" height="36" fill="white"/>
</clipPath>
</defs>
</svg>
